<svg width="48" height="58" viewBox="0 0 48 48" xmlns="http://www.w3.org/2000/svg" fill-rule="evenodd" clip-rule="evenodd">
    <path d="M20 24h-20v-22h3c1.229 0 2.18-1.084 3-2h8c.82.916 1.771 2 3 2h3v9h-2v-7h-4l-2 2h-3.898l-2.102-2h-4v18h16v-5h2v7zm-10-4h-6v-1h6v1zm0-2h-6v-1h6v1zm6-5h8v2h-8v3l-5-4 5-4v3zm-6 3h-6v-1h6v1zm0-2h-6v-1h6v1zm0-2h-6v-1h6v1zm0-2h-6v-1h6v1zm-1-7c0 .552.448 1 1 1s1-.448 1-1-.448-1-1-1-1 .448-1 1z"/>
    <path transform="translate(-2, 28)" d="M7 14.729l.855-1.151c1 .484 1.635.852 2.76 1.654 2.113-2.399 3.511-3.616 6.106-5.231l.279.64c-2.141 1.869-3.709 3.949-5.967 7.999-1.393-1.64-2.322-2.326-4.033-3.911zm15-11.729v21h-20v-21h4.666l-2.666 2.808v16.192h16v-16.192l-2.609-2.808h4.609zm-3.646 4l-3.312-3.569v-.41c.001-1.668-1.352-3.021-3.021-3.021-1.667 0-3.021 1.332-3.021 3l.001.431-3.298 3.569h12.651zm-6.354-5c.553 0 1 .448 1 1s-.447 1-1 1-1-.448-1-1 .447-1 1-1z"/>
</svg>